<svg xmlns="http://www.w3.org/2000/svg" viewBox="0 0 512 512" shape-rendering="crispEdges" role="img" aria-label="VCFM">
<rect x="32" y="0" width="448" height="16" fill="#1e3a5f"/>
<rect x="16" y="16" width="480" height="16" fill="#0b1220"/>
<rect x="0" y="32" width="16" height="16" fill="#1e3a5f"/>
<rect x="16" y="32" width="480" height="16" fill="#0b1220"/>
<rect x="496" y="32" width="16" height="16" fill="#1e3a5f"/>
<rect x="0" y="48" width="16" height="16" fill="#1e3a5f"/>
<rect x="16" y="48" width="176" height="16" fill="#0b1220"/>
<rect x="192" y="48" width="128" height="16" fill="#0f172a"/>
<rect x="320" y="48" width="176" height="16" fill="#0b1220"/>
<rect x="496" y="48" width="16" height="16" fill="#1e3a5f"/>
<rect x="0" y="64" width="16" height="16" fill="#1e3a5f"/>
<rect x="16" y="64" width="144" height="16" fill="#0b1220"/>
<rect x="160" y="64" width="48" height="16" fill="#0f172a"/>
<rect x="208" y="64" width="48" height="16" fill="#e8eefc"/>
<rect x="256" y="64" width="16" height="16" fill="#0f172a"/>
<rect x="272" y="64" width="32" height="16" fill="#e8eefc"/>
<rect x="304" y="64" width="48" height="16" fill="#0f172a"/>
<rect x="352" y="64" width="144" height="16" fill="#0b1220"/>
<rect x="496" y="64" width="16" height="16" fill="#1e3a5f"/>
<rect x="0" y="80" width="16" height="16" fill="#1e3a5f"/>
<rect x="16" y="80" width="112" height="16" fill="#0b1220"/>
<rect x="128" y="80" width="32" height="16" fill="#0f172a"/>
<rect x="160" y="80" width="96" height="16" fill="#e8eefc"/>
<rect x="256" y="80" width="16" height="16" fill="#0f172a"/>
<rect x="272" y="80" width="80" height="16" fill="#e8eefc"/>
<rect x="352" y="80" width="32" height="16" fill="#0f172a"/>
<rect x="384" y="80" width="112" height="16" fill="#0b1220"/>
<rect x="496" y="80" width="16" height="16" fill="#1e3a5f"/>
<rect x="0" y="96" width="16" height="16" fill="#1e3a5f"/>
<rect x="16" y="96" width="96" height="16" fill="#0b1220"/>
<rect x="112" y="96" width="32" height="16" fill="#0f172a"/>
<rect x="144" y="96" width="112" height="16" fill="#e8eefc"/>
<rect x="256" y="96" width="16" height="16" fill="#0f172a"/>
<rect x="272" y="96" width="96" height="16" fill="#e8eefc"/>
<rect x="368" y="96" width="32" height="16" fill="#0f172a"/>
<rect x="400" y="96" width="96" height="16" fill="#0b1220"/>
<rect x="496" y="96" width="16" height="16" fill="#1e3a5f"/>
<rect x="0" y="112" width="16" height="16" fill="#1e3a5f"/>
<rect x="16" y="112" width="80" height="16" fill="#0b1220"/>
<rect x="96" y="112" width="32" height="16" fill="#0f172a"/>
<rect x="128" y="112" width="16" height="16" fill="#e8eefc"/>
<rect x="144" y="112" width="64" height="16" fill="#0f172a"/>
<rect x="208" y="112" width="48" height="16" fill="#e8eefc"/>
<rect x="256" y="112" width="16" height="16" fill="#0f172a"/>
<rect x="272" y="112" width="32" height="16" fill="#e8eefc"/>
<rect x="304" y="112" width="64" height="16" fill="#0f172a"/>
<rect x="368" y="112" width="16" height="16" fill="#e8eefc"/>
<rect x="384" y="112" width="32" height="16" fill="#0f172a"/>
<rect x="416" y="112" width="80" height="16" fill="#0b1220"/>
<rect x="496" y="112" width="16" height="16" fill="#1e3a5f"/>
<rect x="0" y="128" width="16" height="16" fill="#1e3a5f"/>
<rect x="16" y="128" width="64" height="16" fill="#0b1220"/>
<rect x="80" y="128" width="32" height="16" fill="#0f172a"/>
<rect x="112" y="128" width="32" height="16" fill="#e8eefc"/>
<rect x="144" y="128" width="64" height="16" fill="#0f172a"/>
<rect x="208" y="128" width="48" height="16" fill="#e8eefc"/>
<rect x="256" y="128" width="16" height="16" fill="#0f172a"/>
<rect x="272" y="128" width="32" height="16" fill="#e8eefc"/>
<rect x="304" y="128" width="64" height="16" fill="#0f172a"/>
<rect x="368" y="128" width="32" height="16" fill="#e8eefc"/>
<rect x="400" y="128" width="32" height="16" fill="#0f172a"/>
<rect x="432" y="128" width="64" height="16" fill="#0b1220"/>
<rect x="496" y="128" width="16" height="16" fill="#1e3a5f"/>
<rect x="0" y="144" width="16" height="16" fill="#1e3a5f"/>
<rect x="16" y="144" width="64" height="16" fill="#0b1220"/>
<rect x="80" y="144" width="16" height="16" fill="#0f172a"/>
<rect x="96" y="144" width="48" height="16" fill="#e8eefc"/>
<rect x="144" y="144" width="224" height="16" fill="#0f172a"/>
<rect x="368" y="144" width="48" height="16" fill="#e8eefc"/>
<rect x="416" y="144" width="16" height="16" fill="#0f172a"/>
<rect x="432" y="144" width="64" height="16" fill="#0b1220"/>
<rect x="496" y="144" width="16" height="16" fill="#1e3a5f"/>
<rect x="0" y="160" width="16" height="16" fill="#1e3a5f"/>
<rect x="16" y="160" width="48" height="16" fill="#0b1220"/>
<rect x="64" y="160" width="16" height="16" fill="#0f172a"/>
<rect x="80" y="160" width="64" height="16" fill="#e8eefc"/>
<rect x="144" y="160" width="64" height="16" fill="#0f172a"/>
<rect x="208" y="160" width="48" height="16" fill="#e8eefc"/>
<rect x="256" y="160" width="16" height="16" fill="#0f172a"/>
<rect x="272" y="160" width="32" height="16" fill="#e8eefc"/>
<rect x="304" y="160" width="64" height="16" fill="#0f172a"/>
<rect x="368" y="160" width="64" height="16" fill="#e8eefc"/>
<rect x="432" y="160" width="16" height="16" fill="#0f172a"/>
<rect x="448" y="160" width="48" height="16" fill="#0b1220"/>
<rect x="496" y="160" width="16" height="16" fill="#1e3a5f"/>
<rect x="0" y="176" width="16" height="16" fill="#1e3a5f"/>
<rect x="16" y="176" width="48" height="16" fill="#0b1220"/>
<rect x="64" y="176" width="16" height="16" fill="#0f172a"/>
<rect x="80" y="176" width="80" height="16" fill="#e8eefc"/>
<rect x="160" y="176" width="16" height="16" fill="#0f172a"/>
<rect x="176" y="176" width="80" height="16" fill="#e8eefc"/>
<rect x="256" y="176" width="16" height="16" fill="#0f172a"/>
<rect x="272" y="176" width="64" height="16" fill="#e8eefc"/>
<rect x="336" y="176" width="16" height="16" fill="#0f172a"/>
<rect x="352" y="176" width="80" height="16" fill="#e8eefc"/>
<rect x="432" y="176" width="16" height="16" fill="#0f172a"/>
<rect x="448" y="176" width="48" height="16" fill="#0b1220"/>
<rect x="496" y="176" width="16" height="16" fill="#1e3a5f"/>
<rect x="0" y="192" width="16" height="16" fill="#1e3a5f"/>
<rect x="16" y="192" width="32" height="16" fill="#0b1220"/>
<rect x="48" y="192" width="64" height="16" fill="#0f172a"/>
<rect x="112" y="192" width="32" height="16" fill="#e8eefc"/>
<rect x="144" y="192" width="16" height="16" fill="#0f172a"/>
<rect x="160" y="192" width="80" height="16" fill="#e8eefc"/>
<rect x="240" y="192" width="32" height="16" fill="#0f172a"/>
<rect x="272" y="192" width="80" height="16" fill="#e8eefc"/>
<rect x="352" y="192" width="16" height="16" fill="#0f172a"/>
<rect x="368" y="192" width="32" height="16" fill="#e8eefc"/>
<rect x="400" y="192" width="64" height="16" fill="#0f172a"/>
<rect x="464" y="192" width="32" height="16" fill="#0b1220"/>
<rect x="496" y="192" width="16" height="16" fill="#1e3a5f"/>
<rect x="0" y="208" width="16" height="16" fill="#1e3a5f"/>
<rect x="16" y="208" width="32" height="16" fill="#0b1220"/>
<rect x="48" y="208" width="16" height="16" fill="#0f172a"/>
<rect x="64" y="208" width="32" height="16" fill="#e8eefc"/>
<rect x="96" y="208" width="64" height="16" fill="#0f172a"/>
<rect x="160" y="208" width="64" height="16" fill="#e8eefc"/>
<rect x="224" y="208" width="64" height="16" fill="#0f172a"/>
<rect x="288" y="208" width="64" height="16" fill="#e8eefc"/>
<rect x="352" y="208" width="64" height="16" fill="#0f172a"/>
<rect x="416" y="208" width="32" height="16" fill="#e8eefc"/>
<rect x="448" y="208" width="16" height="16" fill="#0f172a"/>
<rect x="464" y="208" width="32" height="16" fill="#0b1220"/>
<rect x="496" y="208" width="16" height="16" fill="#1e3a5f"/>
<rect x="0" y="224" width="16" height="16" fill="#1e3a5f"/>
<rect x="16" y="224" width="32" height="16" fill="#0b1220"/>
<rect x="48" y="224" width="16" height="16" fill="#0f172a"/>
<rect x="64" y="224" width="80" height="16" fill="#e8eefc"/>
<rect x="144" y="224" width="224" height="16" fill="#0f172a"/>
<rect x="368" y="224" width="80" height="16" fill="#e8eefc"/>
<rect x="448" y="224" width="16" height="16" fill="#0f172a"/>
<rect x="464" y="224" width="32" height="16" fill="#0b1220"/>
<rect x="496" y="224" width="16" height="16" fill="#1e3a5f"/>
<rect x="0" y="240" width="16" height="16" fill="#1e3a5f"/>
<rect x="16" y="240" width="32" height="16" fill="#0b1220"/>
<rect x="48" y="240" width="16" height="16" fill="#0f172a"/>
<rect x="64" y="240" width="64" height="16" fill="#e8eefc"/>
<rect x="128" y="240" width="16" height="16" fill="#0f172a"/>
<rect x="144" y="240" width="48" height="16" fill="#e8eefc"/>
<rect x="192" y="240" width="128" height="16" fill="#0f172a"/>
<rect x="320" y="240" width="48" height="16" fill="#e8eefc"/>
<rect x="368" y="240" width="16" height="16" fill="#0f172a"/>
<rect x="384" y="240" width="64" height="16" fill="#e8eefc"/>
<rect x="448" y="240" width="16" height="16" fill="#0f172a"/>
<rect x="464" y="240" width="32" height="16" fill="#0b1220"/>
<rect x="496" y="240" width="16" height="16" fill="#1e3a5f"/>
<rect x="0" y="256" width="16" height="16" fill="#1e3a5f"/>
<rect x="16" y="256" width="32" height="16" fill="#0b1220"/>
<rect x="48" y="256" width="16" height="16" fill="#0f172a"/>
<rect x="64" y="256" width="48" height="16" fill="#e8eefc"/>
<rect x="112" y="256" width="32" height="16" fill="#0f172a"/>
<rect x="144" y="256" width="64" height="16" fill="#e8eefc"/>
<rect x="208" y="256" width="96" height="16" fill="#0f172a"/>
<rect x="304" y="256" width="64" height="16" fill="#e8eefc"/>
<rect x="368" y="256" width="32" height="16" fill="#0f172a"/>
<rect x="400" y="256" width="48" height="16" fill="#e8eefc"/>
<rect x="448" y="256" width="16" height="16" fill="#0f172a"/>
<rect x="464" y="256" width="32" height="16" fill="#0b1220"/>
<rect x="496" y="256" width="16" height="16" fill="#1e3a5f"/>
<rect x="0" y="272" width="16" height="16" fill="#1e3a5f"/>
<rect x="16" y="272" width="32" height="16" fill="#0b1220"/>
<rect x="48" y="272" width="16" height="16" fill="#0f172a"/>
<rect x="64" y="272" width="32" height="16" fill="#e8eefc"/>
<rect x="96" y="272" width="64" height="16" fill="#0f172a"/>
<rect x="160" y="272" width="48" height="16" fill="#e8eefc"/>
<rect x="208" y="272" width="96" height="16" fill="#0f172a"/>
<rect x="304" y="272" width="48" height="16" fill="#e8eefc"/>
<rect x="352" y="272" width="64" height="16" fill="#0f172a"/>
<rect x="416" y="272" width="32" height="16" fill="#e8eefc"/>
<rect x="448" y="272" width="16" height="16" fill="#0f172a"/>
<rect x="464" y="272" width="32" height="16" fill="#0b1220"/>
<rect x="496" y="272" width="16" height="16" fill="#1e3a5f"/>
<rect x="0" y="288" width="16" height="16" fill="#1e3a5f"/>
<rect x="16" y="288" width="32" height="16" fill="#0b1220"/>
<rect x="48" y="288" width="16" height="16" fill="#0f172a"/>
<rect x="64" y="288" width="16" height="16" fill="#e8eefc"/>
<rect x="80" y="288" width="80" height="16" fill="#0f172a"/>
<rect x="160" y="288" width="48" height="16" fill="#e8eefc"/>
<rect x="208" y="288" width="96" height="16" fill="#0f172a"/>
<rect x="304" y="288" width="48" height="16" fill="#e8eefc"/>
<rect x="352" y="288" width="80" height="16" fill="#0f172a"/>
<rect x="432" y="288" width="16" height="16" fill="#e8eefc"/>
<rect x="448" y="288" width="16" height="16" fill="#0f172a"/>
<rect x="464" y="288" width="32" height="16" fill="#0b1220"/>
<rect x="496" y="288" width="16" height="16" fill="#1e3a5f"/>
<rect x="0" y="304" width="16" height="16" fill="#1e3a5f"/>
<rect x="16" y="304" width="32" height="16" fill="#0b1220"/>
<rect x="48" y="304" width="32" height="16" fill="#0f172a"/>
<rect x="80" y="304" width="16" height="16" fill="#e8eefc"/>
<rect x="96" y="304" width="64" height="16" fill="#0f172a"/>
<rect x="160" y="304" width="48" height="16" fill="#e8eefc"/>
<rect x="208" y="304" width="16" height="16" fill="#0f172a"/>
<rect x="224" y="304" width="64" height="16" fill="#e8eefc"/>
<rect x="288" y="304" width="16" height="16" fill="#0f172a"/>
<rect x="304" y="304" width="48" height="16" fill="#e8eefc"/>
<rect x="352" y="304" width="64" height="16" fill="#0f172a"/>
<rect x="416" y="304" width="16" height="16" fill="#e8eefc"/>
<rect x="432" y="304" width="32" height="16" fill="#0f172a"/>
<rect x="464" y="304" width="32" height="16" fill="#0b1220"/>
<rect x="496" y="304" width="16" height="16" fill="#1e3a5f"/>
<rect x="0" y="320" width="16" height="16" fill="#1e3a5f"/>
<rect x="16" y="320" width="48" height="16" fill="#0b1220"/>
<rect x="64" y="320" width="16" height="16" fill="#0f172a"/>
<rect x="80" y="320" width="16" height="16" fill="#b8c4d4"/>
<rect x="96" y="320" width="80" height="16" fill="#0f172a"/>
<rect x="176" y="320" width="16" height="16" fill="#b8c4d4"/>
<rect x="192" y="320" width="32" height="16" fill="#0f172a"/>
<rect x="224" y="320" width="64" height="16" fill="#b8c4d4"/>
<rect x="288" y="320" width="32" height="16" fill="#0f172a"/>
<rect x="320" y="320" width="16" height="16" fill="#b8c4d4"/>
<rect x="336" y="320" width="16" height="16" fill="#0f172a"/>
<rect x="352" y="320" width="16" height="16" fill="#b8c4d4"/>
<rect x="368" y="320" width="48" height="16" fill="#0f172a"/>
<rect x="416" y="320" width="16" height="16" fill="#b8c4d4"/>
<rect x="432" y="320" width="16" height="16" fill="#0f172a"/>
<rect x="448" y="320" width="48" height="16" fill="#0b1220"/>
<rect x="496" y="320" width="16" height="16" fill="#1e3a5f"/>
<rect x="0" y="336" width="16" height="16" fill="#1e3a5f"/>
<rect x="16" y="336" width="48" height="16" fill="#0b1220"/>
<rect x="64" y="336" width="16" height="16" fill="#0f172a"/>
<rect x="80" y="336" width="96" height="16" fill="#b8c4d4"/>
<rect x="176" y="336" width="32" height="16" fill="#0f172a"/>
<rect x="208" y="336" width="96" height="16" fill="#b8c4d4"/>
<rect x="304" y="336" width="32" height="16" fill="#0f172a"/>
<rect x="336" y="336" width="96" height="16" fill="#b8c4d4"/>
<rect x="432" y="336" width="16" height="16" fill="#0f172a"/>
<rect x="448" y="336" width="48" height="16" fill="#0b1220"/>
<rect x="496" y="336" width="16" height="16" fill="#1e3a5f"/>
<rect x="0" y="352" width="16" height="16" fill="#1e3a5f"/>
<rect x="16" y="352" width="64" height="16" fill="#0b1220"/>
<rect x="80" y="352" width="16" height="16" fill="#0f172a"/>
<rect x="96" y="352" width="64" height="16" fill="#b8c4d4"/>
<rect x="160" y="352" width="64" height="16" fill="#0f172a"/>
<rect x="224" y="352" width="16" height="16" fill="#b8c4d4"/>
<rect x="240" y="352" width="32" height="16" fill="#0f172a"/>
<rect x="272" y="352" width="16" height="16" fill="#b8c4d4"/>
<rect x="288" y="352" width="64" height="16" fill="#0f172a"/>
<rect x="352" y="352" width="64" height="16" fill="#b8c4d4"/>
<rect x="416" y="352" width="16" height="16" fill="#0f172a"/>
<rect x="432" y="352" width="64" height="16" fill="#0b1220"/>
<rect x="496" y="352" width="16" height="16" fill="#1e3a5f"/>
<rect x="0" y="368" width="16" height="16" fill="#1e3a5f"/>
<rect x="16" y="368" width="64" height="16" fill="#0b1220"/>
<rect x="80" y="368" width="32" height="16" fill="#0f172a"/>
<rect x="112" y="368" width="48" height="16" fill="#b8c4d4"/>
<rect x="160" y="368" width="16" height="16" fill="#0f172a"/>
<rect x="176" y="368" width="48" height="16" fill="#b8c4d4"/>
<rect x="224" y="368" width="64" height="16" fill="#0f172a"/>
<rect x="288" y="368" width="48" height="16" fill="#b8c4d4"/>
<rect x="336" y="368" width="16" height="16" fill="#0f172a"/>
<rect x="352" y="368" width="48" height="16" fill="#b8c4d4"/>
<rect x="400" y="368" width="32" height="16" fill="#0f172a"/>
<rect x="432" y="368" width="64" height="16" fill="#0b1220"/>
<rect x="496" y="368" width="16" height="16" fill="#1e3a5f"/>
<rect x="0" y="384" width="16" height="16" fill="#1e3a5f"/>
<rect x="16" y="384" width="80" height="16" fill="#0b1220"/>
<rect x="96" y="384" width="32" height="16" fill="#0f172a"/>
<rect x="128" y="384" width="16" height="16" fill="#b8c4d4"/>
<rect x="144" y="384" width="32" height="16" fill="#0f172a"/>
<rect x="176" y="384" width="48" height="16" fill="#b8c4d4"/>
<rect x="224" y="384" width="64" height="16" fill="#0f172a"/>
<rect x="288" y="384" width="48" height="16" fill="#b8c4d4"/>
<rect x="336" y="384" width="32" height="16" fill="#0f172a"/>
<rect x="368" y="384" width="16" height="16" fill="#b8c4d4"/>
<rect x="384" y="384" width="32" height="16" fill="#0f172a"/>
<rect x="416" y="384" width="80" height="16" fill="#0b1220"/>
<rect x="496" y="384" width="16" height="16" fill="#1e3a5f"/>
<rect x="0" y="400" width="16" height="16" fill="#1e3a5f"/>
<rect x="16" y="400" width="96" height="16" fill="#0b1220"/>
<rect x="112" y="400" width="48" height="16" fill="#0f172a"/>
<rect x="160" y="400" width="64" height="16" fill="#b8c4d4"/>
<rect x="224" y="400" width="64" height="16" fill="#0f172a"/>
<rect x="288" y="400" width="64" height="16" fill="#b8c4d4"/>
<rect x="352" y="400" width="48" height="16" fill="#0f172a"/>
<rect x="400" y="400" width="96" height="16" fill="#0b1220"/>
<rect x="496" y="400" width="16" height="16" fill="#1e3a5f"/>
<rect x="0" y="416" width="16" height="16" fill="#1e3a5f"/>
<rect x="16" y="416" width="112" height="16" fill="#0b1220"/>
<rect x="128" y="416" width="32" height="16" fill="#0f172a"/>
<rect x="160" y="416" width="80" height="16" fill="#b8c4d4"/>
<rect x="240" y="416" width="32" height="16" fill="#0f172a"/>
<rect x="272" y="416" width="80" height="16" fill="#b8c4d4"/>
<rect x="352" y="416" width="32" height="16" fill="#0f172a"/>
<rect x="384" y="416" width="112" height="16" fill="#0b1220"/>
<rect x="496" y="416" width="16" height="16" fill="#1e3a5f"/>
<rect x="0" y="432" width="16" height="16" fill="#1e3a5f"/>
<rect x="16" y="432" width="144" height="16" fill="#0b1220"/>
<rect x="160" y="432" width="48" height="16" fill="#0f172a"/>
<rect x="208" y="432" width="96" height="16" fill="#b8c4d4"/>
<rect x="304" y="432" width="48" height="16" fill="#0f172a"/>
<rect x="352" y="432" width="144" height="16" fill="#0b1220"/>
<rect x="496" y="432" width="16" height="16" fill="#1e3a5f"/>
<rect x="0" y="448" width="16" height="16" fill="#1e3a5f"/>
<rect x="16" y="448" width="176" height="16" fill="#0b1220"/>
<rect x="192" y="448" width="128" height="16" fill="#0f172a"/>
<rect x="320" y="448" width="176" height="16" fill="#0b1220"/>
<rect x="496" y="448" width="16" height="16" fill="#1e3a5f"/>
<rect x="0" y="464" width="16" height="16" fill="#1e3a5f"/>
<rect x="16" y="464" width="480" height="16" fill="#0b1220"/>
<rect x="496" y="464" width="16" height="16" fill="#1e3a5f"/>
<rect x="16" y="480" width="480" height="16" fill="#0b1220"/>
<rect x="32" y="496" width="448" height="16" fill="#1e3a5f"/>
</svg>
